solid ascii
  facet normal -1.000000e+000 4.192913e-016 0.000000e+000
    outer loop
      vertex   9.849911e-001 -3.752347e-001 4.900000e-001
      vertex   9.849911e-001 -3.752347e-001 0.000000e+000
      vertex   9.849911e-001 -9.048059e-001 4.900000e-001
    endloop
  endfacet
  facet normal -1.000000e+000 4.192913e-016 0.000000e+000
    outer loop
      vertex   9.849911e-001 -9.048059e-001 4.900000e-001
      vertex   9.849911e-001 -3.752347e-001 0.000000e+000
      vertex   9.849911e-001 -9.048059e-001 0.000000e+000
    endloop
  endfacet
  facet normal 1.025001e-001 9.947330e-001 0.000000e+000
    outer loop
      vertex   9.849911e-001 -3.752347e-001 4.900000e-001
      vertex   1.005648e+000 -3.773633e-001 4.900000e-001
      vertex   9.849911e-001 -3.752347e-001 0.000000e+000
    endloop
  endfacet
  facet normal 1.025001e-001 9.947330e-001 0.000000e+000
    outer loop
      vertex   9.849911e-001 -3.752347e-001 0.000000e+000
      vertex   1.005648e+000 -3.773633e-001 4.900000e-001
      vertex   1.005648e+000 -3.773633e-001 0.000000e+000
    endloop
  endfacet
  facet normal 1.481979e-001 9.889577e-001 -0.000000e+000
    outer loop
      vertex   1.005648e+000 -3.773633e-001 0.000000e+000
      vertex   1.005648e+000 -3.773633e-001 4.900000e-001
      vertex   1.026186e+000 -3.804409e-001 4.900000e-001
    endloop
  endfacet
  facet normal 1.935813e-001 9.810842e-001 -0.000000e+000
    outer loop
      vertex   1.026186e+000 -3.804409e-001 0.000000e+000
      vertex   1.026186e+000 -3.804409e-001 4.900000e-001
      vertex   1.046560e+000 -3.844609e-001 4.900000e-001
    endloop
  endfacet
  facet normal 2.385540e-001 9.711292e-001 -0.000000e+000
    outer loop
      vertex   1.046560e+000 -3.844609e-001 0.000000e+000
      vertex   1.046560e+000 -3.844609e-001 4.900000e-001
      vertex   1.066727e+000 -3.894149e-001 4.900000e-001
    endloop
  endfacet
  facet normal 2.830205e-001 9.591139e-001 -0.000000e+000
    outer loop
      vertex   1.066727e+000 -3.894149e-001 0.000000e+000
      vertex   1.066727e+000 -3.894149e-001 4.900000e-001
      vertex   1.086644e+000 -3.952923e-001 4.900000e-001
    endloop
  endfacet
  facet normal 3.268866e-001 9.450636e-001 -0.000000e+000
    outer loop
      vertex   1.086644e+000 -3.952923e-001 0.000000e+000
      vertex   1.086644e+000 -3.952923e-001 4.900000e-001
      vertex   1.106270e+000 -4.020806e-001 4.900000e-001
    endloop
  endfacet
  facet normal 3.700592e-001 9.290082e-001 -0.000000e+000
    outer loop
      vertex   1.106270e+000 -4.020806e-001 0.000000e+000
      vertex   1.106270e+000 -4.020806e-001 4.900000e-001
      vertex   1.125563e+000 -4.097655e-001 4.900000e-001
    endloop
  endfacet
  facet normal 4.124466e-001 9.109818e-001 -0.000000e+000
    outer loop
      vertex   1.125563e+000 -4.097655e-001 0.000000e+000
      vertex   1.125563e+000 -4.097655e-001 4.900000e-001
      vertex   1.144481e+000 -4.183307e-001 4.900000e-001
    endloop
  endfacet
  facet normal 4.539589e-001 8.910226e-001 -0.000000e+000
    outer loop
      vertex   1.144481e+000 -4.183307e-001 0.000000e+000
      vertex   1.144481e+000 -4.183307e-001 4.900000e-001
      vertex   1.162984e+000 -4.277579e-001 4.900000e-001
    endloop
  endfacet
  facet normal 4.945082e-001 8.691730e-001 -0.000000e+000
    outer loop
      vertex   1.162984e+000 -4.277579e-001 0.000000e+000
      vertex   1.162984e+000 -4.277579e-001 4.900000e-001
      vertex   1.181034e+000 -4.380272e-001 4.900000e-001
    endloop
  endfacet
  facet normal 4.945082e-001 8.691730e-001 0.000000e+000
    outer loop
      vertex   1.181034e+000 -4.380272e-001 0.000000e+000
      vertex   1.162984e+000 -4.277579e-001 0.000000e+000
      vertex   1.181034e+000 -4.380272e-001 4.900000e-001
    endloop
  endfacet
  facet normal 1.481979e-001 9.889577e-001 0.000000e+000
    outer loop
      vertex   1.005648e+000 -3.773633e-001 0.000000e+000
      vertex   1.026186e+000 -3.804409e-001 4.900000e-001
      vertex   1.026186e+000 -3.804409e-001 0.000000e+000
    endloop
  endfacet
  facet normal 1.935813e-001 9.810842e-001 0.000000e+000
    outer loop
      vertex   1.026186e+000 -3.804409e-001 0.000000e+000
      vertex   1.046560e+000 -3.844609e-001 4.900000e-001
      vertex   1.046560e+000 -3.844609e-001 0.000000e+000
    endloop
  endfacet
  facet normal 2.385540e-001 9.711292e-001 0.000000e+000
    outer loop
      vertex   1.046560e+000 -3.844609e-001 0.000000e+000
      vertex   1.066727e+000 -3.894149e-001 4.900000e-001
      vertex   1.066727e+000 -3.894149e-001 0.000000e+000
    endloop
  endfacet
  facet normal 2.830205e-001 9.591139e-001 0.000000e+000
    outer loop
      vertex   1.066727e+000 -3.894149e-001 0.000000e+000
      vertex   1.086644e+000 -3.952923e-001 4.900000e-001
      vertex   1.086644e+000 -3.952923e-001 0.000000e+000
    endloop
  endfacet
  facet normal 3.268866e-001 9.450636e-001 0.000000e+000
    outer loop
      vertex   1.086644e+000 -3.952923e-001 0.000000e+000
      vertex   1.106270e+000 -4.020806e-001 4.900000e-001
      vertex   1.106270e+000 -4.020806e-001 0.000000e+000
    endloop
  endfacet
  facet normal 3.700592e-001 9.290082e-001 0.000000e+000
    outer loop
      vertex   1.106270e+000 -4.020806e-001 0.000000e+000
      vertex   1.125563e+000 -4.097655e-001 4.900000e-001
      vertex   1.125563e+000 -4.097655e-001 0.000000e+000
    endloop
  endfacet
  facet normal 4.124466e-001 9.109818e-001 0.000000e+000
    outer loop
      vertex   1.125563e+000 -4.097655e-001 0.000000e+000
      vertex   1.144481e+000 -4.183307e-001 4.900000e-001
      vertex   1.144481e+000 -4.183307e-001 0.000000e+000
    endloop
  endfacet
  facet normal 4.539589e-001 8.910226e-001 0.000000e+000
    outer loop
      vertex   1.144481e+000 -4.183307e-001 0.000000e+000
      vertex   1.162984e+000 -4.277579e-001 4.900000e-001
      vertex   1.162984e+000 -4.277579e-001 0.000000e+000
    endloop
  endfacet
  facet normal 1.000000e+000 -9.513914e-016 0.000000e+000
    outer loop
      vertex   1.181034e+000 -9.048059e-001 4.900000e-001
      vertex   1.181034e+000 -9.048059e-001 0.000000e+000
      vertex   1.181034e+000 -4.380272e-001 4.900000e-001
    endloop
  endfacet
  facet normal 1.000000e+000 -9.513914e-016 0.000000e+000
    outer loop
      vertex   1.181034e+000 -4.380272e-001 4.900000e-001
      vertex   1.181034e+000 -9.048059e-001 0.000000e+000
      vertex   1.181034e+000 -4.380272e-001 0.000000e+000
    endloop
  endfacet
  facet normal 9.987165e-001 -5.064917e-002 0.000000e+000
    outer loop
      vertex   1.181034e+000 -9.048059e-001 0.000000e+000
      vertex   1.181034e+000 -9.048059e-001 4.900000e-001
      vertex   1.180531e+000 -9.147225e-001 0.000000e+000
    endloop
  endfacet
  facet normal 9.987165e-001 -5.064917e-002 0.000000e+000
    outer loop
      vertex   1.180531e+000 -9.147225e-001 0.000000e+000
      vertex   1.181034e+000 -9.048059e-001 4.900000e-001
      vertex   1.180531e+000 -9.147225e-001 4.900000e-001
    endloop
  endfacet
  facet normal 9.884683e-001 -1.514278e-001 0.000000e+000
    outer loop
      vertex   1.179028e+000 -9.245375e-001 4.900000e-001
      vertex   1.180531e+000 -9.147225e-001 0.000000e+000
      vertex   1.180531e+000 -9.147225e-001 4.900000e-001
    endloop
  endfacet
  facet normal 9.884683e-001 -1.514278e-001 0.000000e+000
    outer loop
      vertex   1.179028e+000 -9.245375e-001 4.900000e-001
      vertex   1.179028e+000 -9.245375e-001 0.000000e+000
      vertex   1.180531e+000 -9.147225e-001 0.000000e+000
    endloop
  endfacet
  facet normal 9.680771e-001 -2.506525e-001 0.000000e+000
    outer loop
      vertex   1.179028e+000 -9.245375e-001 4.900000e-001
      vertex   1.176539e+000 -9.341499e-001 4.900000e-001
      vertex   1.179028e+000 -9.245375e-001 0.000000e+000
    endloop
  endfacet
  facet normal 9.680771e-001 -2.506525e-001 0.000000e+000
    outer loop
      vertex   1.179028e+000 -9.245375e-001 0.000000e+000
      vertex   1.176539e+000 -9.341499e-001 4.900000e-001
      vertex   1.176539e+000 -9.341499e-001 0.000000e+000
    endloop
  endfacet
  facet normal 9.377521e-001 -3.473053e-001 0.000000e+000
    outer loop
      vertex   1.176539e+000 -9.341499e-001 0.000000e+000
      vertex   1.176539e+000 -9.341499e-001 4.900000e-001
      vertex   1.173090e+000 -9.434612e-001 4.900000e-001
    endloop
  endfacet
  facet normal 8.978045e-001 -4.403942e-001 0.000000e+000
    outer loop
      vertex   1.173090e+000 -9.434612e-001 0.000000e+000
      vertex   1.173090e+000 -9.434612e-001 4.900000e-001
      vertex   1.168717e+000 -9.523759e-001 4.900000e-001
    endloop
  endfacet
  facet normal 8.486443e-001 -5.289640e-001 0.000000e+000
    outer loop
      vertex   1.168717e+000 -9.523759e-001 0.000000e+000
      vertex   1.168717e+000 -9.523759e-001 4.900000e-001
      vertex   1.163465e+000 -9.608024e-001 4.900000e-001
    endloop
  endfacet
  facet normal 7.907757e-001 -6.121060e-001 0.000000e+000
    outer loop
      vertex   1.163465e+000 -9.608024e-001 0.000000e+000
      vertex   1.163465e+000 -9.608024e-001 4.900000e-001
      vertex   1.157387e+000 -9.686544e-001 4.900000e-001
    endloop
  endfacet
  facet normal 7.247928e-001 -6.889669e-001 0.000000e+000
    outer loop
      vertex   1.157387e+000 -9.686544e-001 0.000000e+000
      vertex   1.157387e+000 -9.686544e-001 4.900000e-001
      vertex   1.150546e+000 -9.758512e-001 4.900000e-001
    endloop
  endfacet
  facet normal 6.513725e-001 -7.587581e-001 0.000000e+000
    outer loop
      vertex   1.150546e+000 -9.758512e-001 0.000000e+000
      vertex   1.150546e+000 -9.758512e-001 4.900000e-001
      vertex   1.143012e+000 -9.823189e-001 4.900000e-001
    endloop
  endfacet
  facet normal 5.712682e-001 -8.207634e-001 0.000000e+000
    outer loop
      vertex   1.143012e+000 -9.823189e-001 0.000000e+000
      vertex   1.143012e+000 -9.823189e-001 4.900000e-001
      vertex   1.134862e+000 -9.879913e-001 4.900000e-001
    endloop
  endfacet
  facet normal 4.853020e-001 -8.743466e-001 0.000000e+000
    outer loop
      vertex   1.134862e+000 -9.879913e-001 0.000000e+000
      vertex   1.134862e+000 -9.879913e-001 4.900000e-001
      vertex   1.126181e+000 -9.928100e-001 4.900000e-001
    endloop
  endfacet
  facet normal 3.943559e-001 -9.189578e-001 0.000000e+000
    outer loop
      vertex   1.126181e+000 -9.928100e-001 0.000000e+000
      vertex   1.126181e+000 -9.928100e-001 4.900000e-001
      vertex   1.117056e+000 -9.967257e-001 4.900000e-001
    endloop
  endfacet
  facet normal 2.993631e-001 -9.541393e-001 0.000000e+000
    outer loop
      vertex   1.117056e+000 -9.967257e-001 0.000000e+000
      vertex   1.117056e+000 -9.967257e-001 4.900000e-001
      vertex   1.107582e+000 -9.996983e-001 4.900000e-001
    endloop
  endfacet
  facet normal 2.012985e-001 -9.795299e-001 0.000000e+000
    outer loop
      vertex   1.107582e+000 -9.996983e-001 0.000000e+000
      vertex   1.107582e+000 -9.996983e-001 4.900000e-001
      vertex   1.097856e+000 -1.001697e+000 4.900000e-001
    endloop
  endfacet
  facet normal 1.011683e-001 -9.948693e-001 0.000000e+000
    outer loop
      vertex   1.097856e+000 -1.001697e+000 0.000000e+000
      vertex   1.097856e+000 -1.001697e+000 4.900000e-001
      vertex   1.087977e+000 -1.002702e+000 4.900000e-001
    endloop
  endfacet
  facet normal 0.000000e+000 -1.000000e+000 0.000000e+000
    outer loop
      vertex   1.087977e+000 -1.002702e+000 0.000000e+000
      vertex   1.087977e+000 -1.002702e+000 4.900000e-001
      vertex   1.078048e+000 -1.002702e+000 4.900000e-001
    endloop
  endfacet
  facet normal -1.011683e-001 -9.948693e-001 0.000000e+000
    outer loop
      vertex   1.078048e+000 -1.002702e+000 0.000000e+000
      vertex   1.078048e+000 -1.002702e+000 4.900000e-001
      vertex   1.068169e+000 -1.001697e+000 4.900000e-001
    endloop
  endfacet
  facet normal -2.012985e-001 -9.795299e-001 0.000000e+000
    outer loop
      vertex   1.068169e+000 -1.001697e+000 0.000000e+000
      vertex   1.068169e+000 -1.001697e+000 4.900000e-001
      vertex   1.058443e+000 -9.996983e-001 4.900000e-001
    endloop
  endfacet
  facet normal -2.993631e-001 -9.541393e-001 0.000000e+000
    outer loop
      vertex   1.058443e+000 -9.996983e-001 0.000000e+000
      vertex   1.058443e+000 -9.996983e-001 4.900000e-001
      vertex   1.048969e+000 -9.967257e-001 4.900000e-001
    endloop
  endfacet
  facet normal -3.943559e-001 -9.189578e-001 0.000000e+000
    outer loop
      vertex   1.048969e+000 -9.967257e-001 0.000000e+000
      vertex   1.048969e+000 -9.967257e-001 4.900000e-001
      vertex   1.039844e+000 -9.928100e-001 4.900000e-001
    endloop
  endfacet
  facet normal -4.853020e-001 -8.743466e-001 0.000000e+000
    outer loop
      vertex   1.039844e+000 -9.928100e-001 0.000000e+000
      vertex   1.039844e+000 -9.928100e-001 4.900000e-001
      vertex   1.031163e+000 -9.879913e-001 4.900000e-001
    endloop
  endfacet
  facet normal -5.712682e-001 -8.207634e-001 0.000000e+000
    outer loop
      vertex   1.031163e+000 -9.879913e-001 0.000000e+000
      vertex   1.031163e+000 -9.879913e-001 4.900000e-001
      vertex   1.023013e+000 -9.823189e-001 4.900000e-001
    endloop
  endfacet
  facet normal -6.513725e-001 -7.587581e-001 0.000000e+000
    outer loop
      vertex   1.023013e+000 -9.823189e-001 0.000000e+000
      vertex   1.023013e+000 -9.823189e-001 4.900000e-001
      vertex   1.015479e+000 -9.758512e-001 4.900000e-001
    endloop
  endfacet
  facet normal -7.247928e-001 -6.889669e-001 0.000000e+000
    outer loop
      vertex   1.015479e+000 -9.758512e-001 0.000000e+000
      vertex   1.015479e+000 -9.758512e-001 4.900000e-001
      vertex   1.008638e+000 -9.686544e-001 4.900000e-001
    endloop
  endfacet
  facet normal -7.907757e-001 -6.121060e-001 0.000000e+000
    outer loop
      vertex   1.008638e+000 -9.686544e-001 0.000000e+000
      vertex   1.008638e+000 -9.686544e-001 4.900000e-001
      vertex   1.002560e+000 -9.608024e-001 4.900000e-001
    endloop
  endfacet
  facet normal -8.486443e-001 -5.289640e-001 0.000000e+000
    outer loop
      vertex   1.002560e+000 -9.608024e-001 0.000000e+000
      vertex   1.002560e+000 -9.608024e-001 4.900000e-001
      vertex   9.973078e-001 -9.523759e-001 4.900000e-001
    endloop
  endfacet
  facet normal -8.978045e-001 -4.403942e-001 0.000000e+000
    outer loop
      vertex   9.973078e-001 -9.523759e-001 0.000000e+000
      vertex   9.973078e-001 -9.523759e-001 4.900000e-001
      vertex   9.929349e-001 -9.434612e-001 4.900000e-001
    endloop
  endfacet
  facet normal -9.377521e-001 -3.473053e-001 7.869108e-017
    outer loop
      vertex   9.929349e-001 -9.434612e-001 0.000000e+000
      vertex   9.929349e-001 -9.434612e-001 4.900000e-001
      vertex   9.894864e-001 -9.341499e-001 4.900000e-001
    endloop
  endfacet
  facet normal -9.680771e-001 -2.506525e-001 0.000000e+000
    outer loop
      vertex   9.894864e-001 -9.341499e-001 0.000000e+000
      vertex   9.894864e-001 -9.341499e-001 4.900000e-001
      vertex   9.869976e-001 -9.245375e-001 4.900000e-001
    endloop
  endfacet
  facet normal -9.884683e-001 -1.514278e-001 0.000000e+000
    outer loop
      vertex   9.869976e-001 -9.245375e-001 0.000000e+000
      vertex   9.869976e-001 -9.245375e-001 4.900000e-001
      vertex   9.854940e-001 -9.147225e-001 4.900000e-001
    endloop
  endfacet
  facet normal -9.987165e-001 -5.064917e-002 0.000000e+000
    outer loop
      vertex   9.854940e-001 -9.147225e-001 0.000000e+000
      vertex   9.854940e-001 -9.147225e-001 4.900000e-001
      vertex   9.849911e-001 -9.048059e-001 4.900000e-001
    endloop
  endfacet
  facet normal -9.987165e-001 -5.064917e-002 0.000000e+000
    outer loop
      vertex   9.849911e-001 -9.048059e-001 0.000000e+000
      vertex   9.854940e-001 -9.147225e-001 0.000000e+000
      vertex   9.849911e-001 -9.048059e-001 4.900000e-001
    endloop
  endfacet
  facet normal 9.377521e-001 -3.473053e-001 0.000000e+000
    outer loop
      vertex   1.176539e+000 -9.341499e-001 0.000000e+000
      vertex   1.173090e+000 -9.434612e-001 4.900000e-001
      vertex   1.173090e+000 -9.434612e-001 0.000000e+000
    endloop
  endfacet
  facet normal 8.978045e-001 -4.403942e-001 0.000000e+000
    outer loop
      vertex   1.173090e+000 -9.434612e-001 0.000000e+000
      vertex   1.168717e+000 -9.523759e-001 4.900000e-001
      vertex   1.168717e+000 -9.523759e-001 0.000000e+000
    endloop
  endfacet
  facet normal 8.486443e-001 -5.289640e-001 0.000000e+000
    outer loop
      vertex   1.168717e+000 -9.523759e-001 0.000000e+000
      vertex   1.163465e+000 -9.608024e-001 4.900000e-001
      vertex   1.163465e+000 -9.608024e-001 0.000000e+000
    endloop
  endfacet
  facet normal 7.907757e-001 -6.121060e-001 0.000000e+000
    outer loop
      vertex   1.163465e+000 -9.608024e-001 0.000000e+000
      vertex   1.157387e+000 -9.686544e-001 4.900000e-001
      vertex   1.157387e+000 -9.686544e-001 0.000000e+000
    endloop
  endfacet
  facet normal 7.247928e-001 -6.889669e-001 0.000000e+000
    outer loop
      vertex   1.157387e+000 -9.686544e-001 0.000000e+000
      vertex   1.150546e+000 -9.758512e-001 4.900000e-001
      vertex   1.150546e+000 -9.758512e-001 0.000000e+000
    endloop
  endfacet
  facet normal 6.513725e-001 -7.587581e-001 0.000000e+000
    outer loop
      vertex   1.150546e+000 -9.758512e-001 0.000000e+000
      vertex   1.143012e+000 -9.823189e-001 4.900000e-001
      vertex   1.143012e+000 -9.823189e-001 0.000000e+000
    endloop
  endfacet
  facet normal 5.712682e-001 -8.207634e-001 0.000000e+000
    outer loop
      vertex   1.143012e+000 -9.823189e-001 0.000000e+000
      vertex   1.134862e+000 -9.879913e-001 4.900000e-001
      vertex   1.134862e+000 -9.879913e-001 0.000000e+000
    endloop
  endfacet
  facet normal 4.853020e-001 -8.743466e-001 0.000000e+000
    outer loop
      vertex   1.134862e+000 -9.879913e-001 0.000000e+000
      vertex   1.126181e+000 -9.928100e-001 4.900000e-001
      vertex   1.126181e+000 -9.928100e-001 0.000000e+000
    endloop
  endfacet
  facet normal 3.943559e-001 -9.189578e-001 0.000000e+000
    outer loop
      vertex   1.126181e+000 -9.928100e-001 0.000000e+000
      vertex   1.117056e+000 -9.967257e-001 4.900000e-001
      vertex   1.117056e+000 -9.967257e-001 0.000000e+000
    endloop
  endfacet
  facet normal 2.993631e-001 -9.541393e-001 0.000000e+000
    outer loop
      vertex   1.117056e+000 -9.967257e-001 0.000000e+000
      vertex   1.107582e+000 -9.996983e-001 4.900000e-001
      vertex   1.107582e+000 -9.996983e-001 0.000000e+000
    endloop
  endfacet
  facet normal 2.012985e-001 -9.795299e-001 0.000000e+000
    outer loop
      vertex   1.107582e+000 -9.996983e-001 0.000000e+000
      vertex   1.097856e+000 -1.001697e+000 4.900000e-001
      vertex   1.097856e+000 -1.001697e+000 0.000000e+000
    endloop
  endfacet
  facet normal 1.011683e-001 -9.948693e-001 0.000000e+000
    outer loop
      vertex   1.097856e+000 -1.001697e+000 0.000000e+000
      vertex   1.087977e+000 -1.002702e+000 4.900000e-001
      vertex   1.087977e+000 -1.002702e+000 0.000000e+000
    endloop
  endfacet
  facet normal -0.000000e+000 -1.000000e+000 -0.000000e+000
    outer loop
      vertex   1.087977e+000 -1.002702e+000 0.000000e+000
      vertex   1.078048e+000 -1.002702e+000 4.900000e-001
      vertex   1.078048e+000 -1.002702e+000 0.000000e+000
    endloop
  endfacet
  facet normal -1.011683e-001 -9.948693e-001 -0.000000e+000
    outer loop
      vertex   1.078048e+000 -1.002702e+000 0.000000e+000
      vertex   1.068169e+000 -1.001697e+000 4.900000e-001
      vertex   1.068169e+000 -1.001697e+000 0.000000e+000
    endloop
  endfacet
  facet normal -2.012985e-001 -9.795299e-001 -0.000000e+000
    outer loop
      vertex   1.068169e+000 -1.001697e+000 0.000000e+000
      vertex   1.058443e+000 -9.996983e-001 4.900000e-001
      vertex   1.058443e+000 -9.996983e-001 0.000000e+000
    endloop
  endfacet
  facet normal -2.993631e-001 -9.541393e-001 -0.000000e+000
    outer loop
      vertex   1.058443e+000 -9.996983e-001 0.000000e+000
      vertex   1.048969e+000 -9.967257e-001 4.900000e-001
      vertex   1.048969e+000 -9.967257e-001 0.000000e+000
    endloop
  endfacet
  facet normal -3.943559e-001 -9.189578e-001 -0.000000e+000
    outer loop
      vertex   1.048969e+000 -9.967257e-001 0.000000e+000
      vertex   1.039844e+000 -9.928100e-001 4.900000e-001
      vertex   1.039844e+000 -9.928100e-001 0.000000e+000
    endloop
  endfacet
  facet normal -4.853020e-001 -8.743466e-001 -0.000000e+000
    outer loop
      vertex   1.039844e+000 -9.928100e-001 0.000000e+000
      vertex   1.031163e+000 -9.879913e-001 4.900000e-001
      vertex   1.031163e+000 -9.879913e-001 0.000000e+000
    endloop
  endfacet
  facet normal -5.712682e-001 -8.207634e-001 -0.000000e+000
    outer loop
      vertex   1.031163e+000 -9.879913e-001 0.000000e+000
      vertex   1.023013e+000 -9.823189e-001 4.900000e-001
      vertex   1.023013e+000 -9.823189e-001 0.000000e+000
    endloop
  endfacet
  facet normal -6.513725e-001 -7.587581e-001 -0.000000e+000
    outer loop
      vertex   1.023013e+000 -9.823189e-001 0.000000e+000
      vertex   1.015479e+000 -9.758512e-001 4.900000e-001
      vertex   1.015479e+000 -9.758512e-001 0.000000e+000
    endloop
  endfacet
  facet normal -7.247928e-001 -6.889669e-001 -0.000000e+000
    outer loop
      vertex   1.015479e+000 -9.758512e-001 0.000000e+000
      vertex   1.008638e+000 -9.686544e-001 4.900000e-001
      vertex   1.008638e+000 -9.686544e-001 0.000000e+000
    endloop
  endfacet
  facet normal -7.907757e-001 -6.121060e-001 -0.000000e+000
    outer loop
      vertex   1.008638e+000 -9.686544e-001 0.000000e+000
      vertex   1.002560e+000 -9.608024e-001 4.900000e-001
      vertex   1.002560e+000 -9.608024e-001 0.000000e+000
    endloop
  endfacet
  facet normal -8.486443e-001 -5.289640e-001 -0.000000e+000
    outer loop
      vertex   1.002560e+000 -9.608024e-001 0.000000e+000
      vertex   9.973078e-001 -9.523759e-001 4.900000e-001
      vertex   9.973078e-001 -9.523759e-001 0.000000e+000
    endloop
  endfacet
  facet normal -8.978045e-001 -4.403942e-001 9.978280e-017
    outer loop
      vertex   9.973078e-001 -9.523759e-001 0.000000e+000
      vertex   9.929349e-001 -9.434612e-001 4.900000e-001
      vertex   9.929349e-001 -9.434612e-001 0.000000e+000
    endloop
  endfacet
  facet normal -9.377521e-001 -3.473053e-001 -0.000000e+000
    outer loop
      vertex   9.929349e-001 -9.434612e-001 0.000000e+000
      vertex   9.894864e-001 -9.341499e-001 4.900000e-001
      vertex   9.894864e-001 -9.341499e-001 0.000000e+000
    endloop
  endfacet
  facet normal -9.680771e-001 -2.506525e-001 -0.000000e+000
    outer loop
      vertex   9.894864e-001 -9.341499e-001 0.000000e+000
      vertex   9.869976e-001 -9.245375e-001 4.900000e-001
      vertex   9.869976e-001 -9.245375e-001 0.000000e+000
    endloop
  endfacet
  facet normal -9.884683e-001 -1.514278e-001 -0.000000e+000
    outer loop
      vertex   9.869976e-001 -9.245375e-001 0.000000e+000
      vertex   9.854940e-001 -9.147225e-001 4.900000e-001
      vertex   9.854940e-001 -9.147225e-001 0.000000e+000
    endloop
  endfacet
  facet normal -0.000000e+000 0.000000e+000 -1.000000e+000
    outer loop
      vertex   1.180531e+000 -9.147225e-001 0.000000e+000
      vertex   1.179028e+000 -9.245375e-001 0.000000e+000
      vertex   1.181034e+000 -9.048059e-001 0.000000e+000
    endloop
  endfacet
  facet normal 0.000000e+000 0.000000e+000 -1.000000e+000
    outer loop
      vertex   1.181034e+000 -9.048059e-001 0.000000e+000
      vertex   1.179028e+000 -9.245375e-001 0.000000e+000
      vertex   1.176539e+000 -9.341499e-001 0.000000e+000
    endloop
  endfacet
  facet normal 0.000000e+000 -0.000000e+000 -1.000000e+000
    outer loop
      vertex   1.173090e+000 -9.434612e-001 0.000000e+000
      vertex   1.181034e+000 -9.048059e-001 0.000000e+000
      vertex   1.176539e+000 -9.341499e-001 0.000000e+000
    endloop
  endfacet
  facet normal -0.000000e+000 0.000000e+000 -1.000000e+000
    outer loop
      vertex   1.173090e+000 -9.434612e-001 0.000000e+000
      vertex   1.168717e+000 -9.523759e-001 0.000000e+000
      vertex   1.181034e+000 -9.048059e-001 0.000000e+000
    endloop
  endfacet
  facet normal 0.000000e+000 0.000000e+000 -1.000000e+000
    outer loop
      vertex   1.181034e+000 -9.048059e-001 0.000000e+000
      vertex   1.168717e+000 -9.523759e-001 0.000000e+000
      vertex   1.163465e+000 -9.608024e-001 0.000000e+000
    endloop
  endfacet
  facet normal 0.000000e+000 -0.000000e+000 -1.000000e+000
    outer loop
      vertex   1.157387e+000 -9.686544e-001 0.000000e+000
      vertex   1.181034e+000 -9.048059e-001 0.000000e+000
      vertex   1.163465e+000 -9.608024e-001 0.000000e+000
    endloop
  endfacet
  facet normal -0.000000e+000 0.000000e+000 -1.000000e+000
    outer loop
      vertex   1.157387e+000 -9.686544e-001 0.000000e+000
      vertex   1.150546e+000 -9.758512e-001 0.000000e+000
      vertex   1.181034e+000 -9.048059e-001 0.000000e+000
    endloop
  endfacet
  facet normal 0.000000e+000 0.000000e+000 -1.000000e+000
    outer loop
      vertex   1.181034e+000 -9.048059e-001 0.000000e+000
      vertex   1.150546e+000 -9.758512e-001 0.000000e+000
      vertex   1.143012e+000 -9.823189e-001 0.000000e+000
    endloop
  endfacet
  facet normal 0.000000e+000 -0.000000e+000 -1.000000e+000
    outer loop
      vertex   1.134862e+000 -9.879913e-001 0.000000e+000
      vertex   1.181034e+000 -9.048059e-001 0.000000e+000
      vertex   1.143012e+000 -9.823189e-001 0.000000e+000
    endloop
  endfacet
  facet normal -0.000000e+000 0.000000e+000 -1.000000e+000
    outer loop
      vertex   1.134862e+000 -9.879913e-001 0.000000e+000
      vertex   1.126181e+000 -9.928100e-001 0.000000e+000
      vertex   1.181034e+000 -9.048059e-001 0.000000e+000
    endloop
  endfacet
  facet normal 0.000000e+000 0.000000e+000 -1.000000e+000
    outer loop
      vertex   1.181034e+000 -9.048059e-001 0.000000e+000
      vertex   1.126181e+000 -9.928100e-001 0.000000e+000
      vertex   1.117056e+000 -9.967257e-001 0.000000e+000
    endloop
  endfacet
  facet normal 0.000000e+000 -0.000000e+000 -1.000000e+000
    outer loop
      vertex   1.107582e+000 -9.996983e-001 0.000000e+000
      vertex   1.181034e+000 -9.048059e-001 0.000000e+000
      vertex   1.117056e+000 -9.967257e-001 0.000000e+000
    endloop
  endfacet
  facet normal -0.000000e+000 0.000000e+000 -1.000000e+000
    outer loop
      vertex   1.107582e+000 -9.996983e-001 0.000000e+000
      vertex   1.097856e+000 -1.001697e+000 0.000000e+000
      vertex   1.181034e+000 -9.048059e-001 0.000000e+000
    endloop
  endfacet
  facet normal 0.000000e+000 0.000000e+000 -1.000000e+000
    outer loop
      vertex   1.181034e+000 -9.048059e-001 0.000000e+000
      vertex   1.097856e+000 -1.001697e+000 0.000000e+000
      vertex   1.087977e+000 -1.002702e+000 0.000000e+000
    endloop
  endfacet
  facet normal 0.000000e+000 -0.000000e+000 -1.000000e+000
    outer loop
      vertex   1.078048e+000 -1.002702e+000 0.000000e+000
      vertex   1.181034e+000 -9.048059e-001 0.000000e+000
      vertex   1.087977e+000 -1.002702e+000 0.000000e+000
    endloop
  endfacet
  facet normal 0.000000e+000 0.000000e+000 -1.000000e+000
    outer loop
      vertex   1.078048e+000 -1.002702e+000 0.000000e+000
      vertex   9.849911e-001 -9.048059e-001 0.000000e+000
      vertex   1.181034e+000 -9.048059e-001 0.000000e+000
    endloop
  endfacet
  facet normal 0.000000e+000 0.000000e+000 -1.000000e+000
    outer loop
      vertex   1.078048e+000 -1.002702e+000 0.000000e+000
      vertex   1.068169e+000 -1.001697e+000 0.000000e+000
      vertex   9.849911e-001 -9.048059e-001 0.000000e+000
    endloop
  endfacet
  facet normal -0.000000e+000 -0.000000e+000 -1.000000e+000
    outer loop
      vertex   9.849911e-001 -9.048059e-001 0.000000e+000
      vertex   1.068169e+000 -1.001697e+000 0.000000e+000
      vertex   1.058443e+000 -9.996983e-001 0.000000e+000
    endloop
  endfacet
  facet normal 0.000000e+000 0.000000e+000 -1.000000e+000
    outer loop
      vertex   1.048969e+000 -9.967257e-001 0.000000e+000
      vertex   9.849911e-001 -9.048059e-001 0.000000e+000
      vertex   1.058443e+000 -9.996983e-001 0.000000e+000
    endloop
  endfacet
  facet normal 0.000000e+000 0.000000e+000 -1.000000e+000
    outer loop
      vertex   1.048969e+000 -9.967257e-001 0.000000e+000
      vertex   1.039844e+000 -9.928100e-001 0.000000e+000
      vertex   9.849911e-001 -9.048059e-001 0.000000e+000
    endloop
  endfacet
  facet normal -0.000000e+000 -0.000000e+000 -1.000000e+000
    outer loop
      vertex   9.849911e-001 -9.048059e-001 0.000000e+000
      vertex   1.039844e+000 -9.928100e-001 0.000000e+000
      vertex   1.031163e+000 -9.879913e-001 0.000000e+000
    endloop
  endfacet
  facet normal 0.000000e+000 0.000000e+000 -1.000000e+000
    outer loop
      vertex   1.023013e+000 -9.823189e-001 0.000000e+000
      vertex   9.849911e-001 -9.048059e-001 0.000000e+000
      vertex   1.031163e+000 -9.879913e-001 0.000000e+000
    endloop
  endfacet
  facet normal 0.000000e+000 0.000000e+000 -1.000000e+000
    outer loop
      vertex   1.023013e+000 -9.823189e-001 0.000000e+000
      vertex   1.015479e+000 -9.758512e-001 0.000000e+000
      vertex   9.849911e-001 -9.048059e-001 0.000000e+000
    endloop
  endfacet
  facet normal -0.000000e+000 -0.000000e+000 -1.000000e+000
    outer loop
      vertex   9.849911e-001 -9.048059e-001 0.000000e+000
      vertex   1.015479e+000 -9.758512e-001 0.000000e+000
      vertex   1.008638e+000 -9.686544e-001 0.000000e+000
    endloop
  endfacet
  facet normal 0.000000e+000 0.000000e+000 -1.000000e+000
    outer loop
      vertex   1.002560e+000 -9.608024e-001 0.000000e+000
      vertex   9.849911e-001 -9.048059e-001 0.000000e+000
      vertex   1.008638e+000 -9.686544e-001 0.000000e+000
    endloop
  endfacet
  facet normal 0.000000e+000 0.000000e+000 -1.000000e+000
    outer loop
      vertex   1.002560e+000 -9.608024e-001 0.000000e+000
      vertex   9.973078e-001 -9.523759e-001 0.000000e+000
      vertex   9.849911e-001 -9.048059e-001 0.000000e+000
    endloop
  endfacet
  facet normal -0.000000e+000 -0.000000e+000 -1.000000e+000
    outer loop
      vertex   9.849911e-001 -9.048059e-001 0.000000e+000
      vertex   9.973078e-001 -9.523759e-001 0.000000e+000
      vertex   9.929349e-001 -9.434612e-001 0.000000e+000
    endloop
  endfacet
  facet normal 0.000000e+000 0.000000e+000 -1.000000e+000
    outer loop
      vertex   9.894864e-001 -9.341499e-001 0.000000e+000
      vertex   9.849911e-001 -9.048059e-001 0.000000e+000
      vertex   9.929349e-001 -9.434612e-001 0.000000e+000
    endloop
  endfacet
  facet normal 0.000000e+000 0.000000e+000 -1.000000e+000
    outer loop
      vertex   9.894864e-001 -9.341499e-001 0.000000e+000
      vertex   9.869976e-001 -9.245375e-001 0.000000e+000
      vertex   9.849911e-001 -9.048059e-001 0.000000e+000
    endloop
  endfacet
  facet normal -0.000000e+000 -0.000000e+000 -1.000000e+000
    outer loop
      vertex   9.849911e-001 -9.048059e-001 0.000000e+000
      vertex   9.869976e-001 -9.245375e-001 0.000000e+000
      vertex   9.854940e-001 -9.147225e-001 0.000000e+000
    endloop
  endfacet
  facet normal 0.000000e+000 -0.000000e+000 -1.000000e+000
    outer loop
      vertex   9.849911e-001 -3.752347e-001 0.000000e+000
      vertex   1.005648e+000 -3.773633e-001 0.000000e+000
      vertex   9.849911e-001 -9.048059e-001 0.000000e+000
    endloop
  endfacet
  facet normal 0.000000e+000 0.000000e+000 -1.000000e+000
    outer loop
      vertex   9.849911e-001 -9.048059e-001 0.000000e+000
      vertex   1.005648e+000 -3.773633e-001 0.000000e+000
      vertex   1.026186e+000 -3.804409e-001 0.000000e+000
    endloop
  endfacet
  facet normal -0.000000e+000 0.000000e+000 -1.000000e+000
    outer loop
      vertex   1.046560e+000 -3.844609e-001 0.000000e+000
      vertex   9.849911e-001 -9.048059e-001 0.000000e+000
      vertex   1.026186e+000 -3.804409e-001 0.000000e+000
    endloop
  endfacet
  facet normal 0.000000e+000 -0.000000e+000 -1.000000e+000
    outer loop
      vertex   1.046560e+000 -3.844609e-001 0.000000e+000
      vertex   1.066727e+000 -3.894149e-001 0.000000e+000
      vertex   9.849911e-001 -9.048059e-001 0.000000e+000
    endloop
  endfacet
  facet normal 0.000000e+000 0.000000e+000 -1.000000e+000
    outer loop
      vertex   9.849911e-001 -9.048059e-001 0.000000e+000
      vertex   1.066727e+000 -3.894149e-001 0.000000e+000
      vertex   1.086644e+000 -3.952923e-001 0.000000e+000
    endloop
  endfacet
  facet normal -0.000000e+000 0.000000e+000 -1.000000e+000
    outer loop
      vertex   1.106270e+000 -4.020806e-001 0.000000e+000
      vertex   9.849911e-001 -9.048059e-001 0.000000e+000
      vertex   1.086644e+000 -3.952923e-001 0.000000e+000
    endloop
  endfacet
  facet normal 0.000000e+000 -0.000000e+000 -1.000000e+000
    outer loop
      vertex   1.106270e+000 -4.020806e-001 0.000000e+000
      vertex   1.125563e+000 -4.097655e-001 0.000000e+000
      vertex   9.849911e-001 -9.048059e-001 0.000000e+000
    endloop
  endfacet
  facet normal 0.000000e+000 0.000000e+000 -1.000000e+000
    outer loop
      vertex   9.849911e-001 -9.048059e-001 0.000000e+000
      vertex   1.125563e+000 -4.097655e-001 0.000000e+000
      vertex   1.144481e+000 -4.183307e-001 0.000000e+000
    endloop
  endfacet
  facet normal 0.000000e+000 0.000000e+000 -1.000000e+000
    outer loop
      vertex   1.181034e+000 -9.048059e-001 0.000000e+000
      vertex   1.144481e+000 -4.183307e-001 0.000000e+000
      vertex   1.162984e+000 -4.277579e-001 0.000000e+000
    endloop
  endfacet
  facet normal -0.000000e+000 0.000000e+000 -1.000000e+000
    outer loop
      vertex   1.181034e+000 -4.380272e-001 0.000000e+000
      vertex   1.181034e+000 -9.048059e-001 0.000000e+000
      vertex   1.162984e+000 -4.277579e-001 0.000000e+000
    endloop
  endfacet
  facet normal 0.000000e+000 0.000000e+000 -1.000000e+000
    outer loop
      vertex   9.849911e-001 -9.048059e-001 0.000000e+000
      vertex   1.144481e+000 -4.183307e-001 0.000000e+000
      vertex   1.181034e+000 -9.048059e-001 0.000000e+000
    endloop
  endfacet
  facet normal -0.000000e+000 0.000000e+000 1.000000e+000
    outer loop
      vertex   9.849911e-001 -3.752347e-001 4.900000e-001
      vertex   9.849911e-001 -9.048059e-001 4.900000e-001
      vertex   1.005648e+000 -3.773633e-001 4.900000e-001
    endloop
  endfacet
  facet normal -0.000000e+000 0.000000e+000 1.000000e+000
    outer loop
      vertex   1.005648e+000 -3.773633e-001 4.900000e-001
      vertex   9.849911e-001 -9.048059e-001 4.900000e-001
      vertex   1.026186e+000 -3.804409e-001 4.900000e-001
    endloop
  endfacet
  facet normal -0.000000e+000 0.000000e+000 1.000000e+000
    outer loop
      vertex   1.026186e+000 -3.804409e-001 4.900000e-001
      vertex   9.849911e-001 -9.048059e-001 4.900000e-001
      vertex   1.046560e+000 -3.844609e-001 4.900000e-001
    endloop
  endfacet
  facet normal -0.000000e+000 0.000000e+000 1.000000e+000
    outer loop
      vertex   1.046560e+000 -3.844609e-001 4.900000e-001
      vertex   9.849911e-001 -9.048059e-001 4.900000e-001
      vertex   1.066727e+000 -3.894149e-001 4.900000e-001
    endloop
  endfacet
  facet normal -0.000000e+000 0.000000e+000 1.000000e+000
    outer loop
      vertex   1.066727e+000 -3.894149e-001 4.900000e-001
      vertex   9.849911e-001 -9.048059e-001 4.900000e-001
      vertex   1.086644e+000 -3.952923e-001 4.900000e-001
    endloop
  endfacet
  facet normal -0.000000e+000 0.000000e+000 1.000000e+000
    outer loop
      vertex   1.086644e+000 -3.952923e-001 4.900000e-001
      vertex   9.849911e-001 -9.048059e-001 4.900000e-001
      vertex   1.106270e+000 -4.020806e-001 4.900000e-001
    endloop
  endfacet
  facet normal -0.000000e+000 0.000000e+000 1.000000e+000
    outer loop
      vertex   1.106270e+000 -4.020806e-001 4.900000e-001
      vertex   9.849911e-001 -9.048059e-001 4.900000e-001
      vertex   1.125563e+000 -4.097655e-001 4.900000e-001
    endloop
  endfacet
  facet normal -0.000000e+000 0.000000e+000 1.000000e+000
    outer loop
      vertex   1.125563e+000 -4.097655e-001 4.900000e-001
      vertex   9.849911e-001 -9.048059e-001 4.900000e-001
      vertex   1.144481e+000 -4.183307e-001 4.900000e-001
    endloop
  endfacet
  facet normal -0.000000e+000 0.000000e+000 1.000000e+000
    outer loop
      vertex   1.144481e+000 -4.183307e-001 4.900000e-001
      vertex   9.849911e-001 -9.048059e-001 4.900000e-001
      vertex   1.181034e+000 -9.048059e-001 4.900000e-001
    endloop
  endfacet
  facet normal -0.000000e+000 0.000000e+000 1.000000e+000
    outer loop
      vertex   1.162984e+000 -4.277579e-001 4.900000e-001
      vertex   1.181034e+000 -9.048059e-001 4.900000e-001
      vertex   1.181034e+000 -4.380272e-001 4.900000e-001
    endloop
  endfacet
  facet normal 0.000000e+000 0.000000e+000 1.000000e+000
    outer loop
      vertex   1.162984e+000 -4.277579e-001 4.900000e-001
      vertex   1.144481e+000 -4.183307e-001 4.900000e-001
      vertex   1.181034e+000 -9.048059e-001 4.900000e-001
    endloop
  endfacet
  facet normal -0.000000e+000 -0.000000e+000 1.000000e+000
    outer loop
      vertex   9.854940e-001 -9.147225e-001 4.900000e-001
      vertex   9.869976e-001 -9.245375e-001 4.900000e-001
      vertex   9.849911e-001 -9.048059e-001 4.900000e-001
    endloop
  endfacet
  facet normal 0.000000e+000 0.000000e+000 1.000000e+000
    outer loop
      vertex   9.849911e-001 -9.048059e-001 4.900000e-001
      vertex   9.869976e-001 -9.245375e-001 4.900000e-001
      vertex   9.894864e-001 -9.341499e-001 4.900000e-001
    endloop
  endfacet
  facet normal 0.000000e+000 0.000000e+000 1.000000e+000
    outer loop
      vertex   9.929349e-001 -9.434612e-001 4.900000e-001
      vertex   9.849911e-001 -9.048059e-001 4.900000e-001
      vertex   9.894864e-001 -9.341499e-001 4.900000e-001
    endloop
  endfacet
  facet normal -0.000000e+000 -0.000000e+000 1.000000e+000
    outer loop
      vertex   9.929349e-001 -9.434612e-001 4.900000e-001
      vertex   9.973078e-001 -9.523759e-001 4.900000e-001
      vertex   9.849911e-001 -9.048059e-001 4.900000e-001
    endloop
  endfacet
  facet normal 0.000000e+000 0.000000e+000 1.000000e+000
    outer loop
      vertex   9.849911e-001 -9.048059e-001 4.900000e-001
      vertex   9.973078e-001 -9.523759e-001 4.900000e-001
      vertex   1.002560e+000 -9.608024e-001 4.900000e-001
    endloop
  endfacet
  facet normal 0.000000e+000 0.000000e+000 1.000000e+000
    outer loop
      vertex   1.008638e+000 -9.686544e-001 4.900000e-001
      vertex   9.849911e-001 -9.048059e-001 4.900000e-001
      vertex   1.002560e+000 -9.608024e-001 4.900000e-001
    endloop
  endfacet
  facet normal -0.000000e+000 -0.000000e+000 1.000000e+000
    outer loop
      vertex   1.008638e+000 -9.686544e-001 4.900000e-001
      vertex   1.015479e+000 -9.758512e-001 4.900000e-001
      vertex   9.849911e-001 -9.048059e-001 4.900000e-001
    endloop
  endfacet
  facet normal 0.000000e+000 0.000000e+000 1.000000e+000
    outer loop
      vertex   9.849911e-001 -9.048059e-001 4.900000e-001
      vertex   1.015479e+000 -9.758512e-001 4.900000e-001
      vertex   1.023013e+000 -9.823189e-001 4.900000e-001
    endloop
  endfacet
  facet normal 0.000000e+000 0.000000e+000 1.000000e+000
    outer loop
      vertex   1.031163e+000 -9.879913e-001 4.900000e-001
      vertex   9.849911e-001 -9.048059e-001 4.900000e-001
      vertex   1.023013e+000 -9.823189e-001 4.900000e-001
    endloop
  endfacet
  facet normal -0.000000e+000 -0.000000e+000 1.000000e+000
    outer loop
      vertex   1.031163e+000 -9.879913e-001 4.900000e-001
      vertex   1.039844e+000 -9.928100e-001 4.900000e-001
      vertex   9.849911e-001 -9.048059e-001 4.900000e-001
    endloop
  endfacet
  facet normal 0.000000e+000 0.000000e+000 1.000000e+000
    outer loop
      vertex   9.849911e-001 -9.048059e-001 4.900000e-001
      vertex   1.039844e+000 -9.928100e-001 4.900000e-001
      vertex   1.048969e+000 -9.967257e-001 4.900000e-001
    endloop
  endfacet
  facet normal 0.000000e+000 0.000000e+000 1.000000e+000
    outer loop
      vertex   1.058443e+000 -9.996983e-001 4.900000e-001
      vertex   9.849911e-001 -9.048059e-001 4.900000e-001
      vertex   1.048969e+000 -9.967257e-001 4.900000e-001
    endloop
  endfacet
  facet normal -0.000000e+000 -0.000000e+000 1.000000e+000
    outer loop
      vertex   1.058443e+000 -9.996983e-001 4.900000e-001
      vertex   1.068169e+000 -1.001697e+000 4.900000e-001
      vertex   9.849911e-001 -9.048059e-001 4.900000e-001
    endloop
  endfacet
  facet normal 0.000000e+000 0.000000e+000 1.000000e+000
    outer loop
      vertex   9.849911e-001 -9.048059e-001 4.900000e-001
      vertex   1.068169e+000 -1.001697e+000 4.900000e-001
      vertex   1.078048e+000 -1.002702e+000 4.900000e-001
    endloop
  endfacet
  facet normal 0.000000e+000 0.000000e+000 1.000000e+000
    outer loop
      vertex   1.087977e+000 -1.002702e+000 4.900000e-001
      vertex   9.849911e-001 -9.048059e-001 4.900000e-001
      vertex   1.078048e+000 -1.002702e+000 4.900000e-001
    endloop
  endfacet
  facet normal 0.000000e+000 -0.000000e+000 1.000000e+000
    outer loop
      vertex   1.087977e+000 -1.002702e+000 4.900000e-001
      vertex   1.181034e+000 -9.048059e-001 4.900000e-001
      vertex   9.849911e-001 -9.048059e-001 4.900000e-001
    endloop
  endfacet
  facet normal 0.000000e+000 0.000000e+000 1.000000e+000
    outer loop
      vertex   1.087977e+000 -1.002702e+000 4.900000e-001
      vertex   1.097856e+000 -1.001697e+000 4.900000e-001
      vertex   1.181034e+000 -9.048059e-001 4.900000e-001
    endloop
  endfacet
  facet normal -0.000000e+000 0.000000e+000 1.000000e+000
    outer loop
      vertex   1.181034e+000 -9.048059e-001 4.900000e-001
      vertex   1.097856e+000 -1.001697e+000 4.900000e-001
      vertex   1.107582e+000 -9.996983e-001 4.900000e-001
    endloop
  endfacet
  facet normal 0.000000e+000 -0.000000e+000 1.000000e+000
    outer loop
      vertex   1.117056e+000 -9.967257e-001 4.900000e-001
      vertex   1.181034e+000 -9.048059e-001 4.900000e-001
      vertex   1.107582e+000 -9.996983e-001 4.900000e-001
    endloop
  endfacet
  facet normal 0.000000e+000 0.000000e+000 1.000000e+000
    outer loop
      vertex   1.117056e+000 -9.967257e-001 4.900000e-001
      vertex   1.126181e+000 -9.928100e-001 4.900000e-001
      vertex   1.181034e+000 -9.048059e-001 4.900000e-001
    endloop
  endfacet
  facet normal -0.000000e+000 0.000000e+000 1.000000e+000
    outer loop
      vertex   1.181034e+000 -9.048059e-001 4.900000e-001
      vertex   1.126181e+000 -9.928100e-001 4.900000e-001
      vertex   1.134862e+000 -9.879913e-001 4.900000e-001
    endloop
  endfacet
  facet normal 0.000000e+000 -0.000000e+000 1.000000e+000
    outer loop
      vertex   1.143012e+000 -9.823189e-001 4.900000e-001
      vertex   1.181034e+000 -9.048059e-001 4.900000e-001
      vertex   1.134862e+000 -9.879913e-001 4.900000e-001
    endloop
  endfacet
  facet normal 0.000000e+000 0.000000e+000 1.000000e+000
    outer loop
      vertex   1.143012e+000 -9.823189e-001 4.900000e-001
      vertex   1.150546e+000 -9.758512e-001 4.900000e-001
      vertex   1.181034e+000 -9.048059e-001 4.900000e-001
    endloop
  endfacet
  facet normal -0.000000e+000 0.000000e+000 1.000000e+000
    outer loop
      vertex   1.181034e+000 -9.048059e-001 4.900000e-001
      vertex   1.150546e+000 -9.758512e-001 4.900000e-001
      vertex   1.157387e+000 -9.686544e-001 4.900000e-001
    endloop
  endfacet
  facet normal 0.000000e+000 -0.000000e+000 1.000000e+000
    outer loop
      vertex   1.163465e+000 -9.608024e-001 4.900000e-001
      vertex   1.181034e+000 -9.048059e-001 4.900000e-001
      vertex   1.157387e+000 -9.686544e-001 4.900000e-001
    endloop
  endfacet
  facet normal 0.000000e+000 0.000000e+000 1.000000e+000
    outer loop
      vertex   1.163465e+000 -9.608024e-001 4.900000e-001
      vertex   1.168717e+000 -9.523759e-001 4.900000e-001
      vertex   1.181034e+000 -9.048059e-001 4.900000e-001
    endloop
  endfacet
  facet normal -0.000000e+000 0.000000e+000 1.000000e+000
    outer loop
      vertex   1.181034e+000 -9.048059e-001 4.900000e-001
      vertex   1.168717e+000 -9.523759e-001 4.900000e-001
      vertex   1.173090e+000 -9.434612e-001 4.900000e-001
    endloop
  endfacet
  facet normal 0.000000e+000 -0.000000e+000 1.000000e+000
    outer loop
      vertex   1.176539e+000 -9.341499e-001 4.900000e-001
      vertex   1.181034e+000 -9.048059e-001 4.900000e-001
      vertex   1.173090e+000 -9.434612e-001 4.900000e-001
    endloop
  endfacet
  facet normal 0.000000e+000 0.000000e+000 1.000000e+000
    outer loop
      vertex   1.176539e+000 -9.341499e-001 4.900000e-001
      vertex   1.179028e+000 -9.245375e-001 4.900000e-001
      vertex   1.181034e+000 -9.048059e-001 4.900000e-001
    endloop
  endfacet
  facet normal -0.000000e+000 0.000000e+000 1.000000e+000
    outer loop
      vertex   1.181034e+000 -9.048059e-001 4.900000e-001
      vertex   1.179028e+000 -9.245375e-001 4.900000e-001
      vertex   1.180531e+000 -9.147225e-001 4.900000e-001
    endloop
  endfacet
endsolid